#N canvas 860 4 993 947 16;
#X obj 516 753 line~;
#X obj 875 629 pack 0 0;
#X obj 341 616 pack 1 0;
#X obj 529 623 pack 0 0 0;
#X obj 299 358 sel 0;
#X obj 308 486 t b b b;
#X msg 236 528 stop;
#X obj 282 615 0;
#X obj 529 576 delay;
#X obj 553 534 + 1;
#X obj 529 668 route 0;
#X floatatom 690 432 5 0 1 0 - - -, f 5;
#X obj 693 324 hsl 128 15 0 1 0 0 empty empty empty -2 -8 0 10 -262144
-1 -1 5080 1;
#X text 690 301 Sustain;
#X floatatom 549 432 5 0 500 0 - - -, f 5;
#X obj 549 324 hsl 128 15 0 500 0 0 empty empty empty -2 -8 0 10 -262144
-1 -1 1270 1;
#X text 546 301 Decay;
#X floatatom 403 432 5 0 300 0 - - -, f 5;
#X obj 403 324 hsl 128 15 0 300 0 0 empty empty empty -2 -8 0 10 -262144
-1 -1 4233 1;
#X text 402 301 Attack;
#X floatatom 851 432 5 0 1000 0 - - -, f 5;
#X obj 854 324 hsl 128 15 0 1000 0 0 empty empty empty -2 -8 0 10 -262144
-1 -1 5080 1;
#X text 851 301 Release;
#X obj 12 318 hsl 128 15 0 2000 0 0 empty empty empty -2 -8 0 10 -262144
-1 -1 9500 1;
#X floatatom 12 355 9 0 0 0 - - -, f 9;
#X obj 155 919 dac~;
#X obj 12 498 osc~;
#X obj 71 9 dumpOSC 8887;
#X obj 349 143 unpack f f f f f;
#X obj 172 817 *~;
#X text 8 298 Frequency;
#X obj 299 322 tgl 15 0 empty empty empty 17 7 0 10 -262144 -1 -1 1
1;
#X obj 114 234 int;
#X floatatom 148 438 1 0 0 0 - - -, f 1;
#X obj 64 498 phasor~;
#X obj 13 680 *~;
#X obj 64 679 *~;
#X obj 149 564 tgl 15 0 empty empty empty 17 7 0 10 -262144 -1 -1 1
1;
#X obj 211 565 tgl 15 0 empty empty empty 17 7 0 10 -262144 -1 -1 0
1;
#X msg 149 594 \$1 10;
#X obj 149 625 line~;
#X msg 211 594 \$1 10;
#X obj 211 625 line~;
#X obj 148 390 unpack f f;
#X floatatom 245 437 1 0 0 0 - - -, f 1;
#X obj 82 53 OSCroute /toggle /waves /fadsr;
#X connect 0 0 29 1;
#X connect 1 0 0 0;
#X connect 2 0 0 0;
#X connect 3 0 10 0;
#X connect 4 0 6 0;
#X connect 4 0 1 0;
#X connect 4 1 5 0;
#X connect 5 0 8 0;
#X connect 5 1 2 0;
#X connect 5 2 7 0;
#X connect 6 0 8 0;
#X connect 7 0 0 0;
#X connect 8 0 3 0;
#X connect 9 0 8 1;
#X connect 10 0 0 0;
#X connect 11 0 3 1;
#X connect 12 0 11 0;
#X connect 14 0 3 2;
#X connect 15 0 14 0;
#X connect 17 0 9 0;
#X connect 17 0 2 1;
#X connect 18 0 17 0;
#X connect 20 0 1 1;
#X connect 21 0 20 0;
#X connect 23 0 24 0;
#X connect 24 0 26 0;
#X connect 24 0 34 0;
#X connect 26 0 35 0;
#X connect 27 0 45 0;
#X connect 28 0 32 0;
#X connect 28 1 18 0;
#X connect 28 2 15 0;
#X connect 28 3 12 0;
#X connect 28 4 21 0;
#X connect 29 0 25 0;
#X connect 29 0 25 1;
#X connect 31 0 4 0;
#X connect 32 0 23 0;
#X connect 33 0 37 0;
#X connect 34 0 36 0;
#X connect 35 0 29 0;
#X connect 36 0 29 0;
#X connect 37 0 39 0;
#X connect 38 0 41 0;
#X connect 39 0 40 0;
#X connect 40 0 35 1;
#X connect 41 0 42 0;
#X connect 42 0 36 1;
#X connect 43 0 33 0;
#X connect 43 1 44 0;
#X connect 44 0 38 0;
#X connect 45 0 31 0;
#X connect 45 1 43 0;
#X connect 45 2 28 0;
